<svg width="139" height="34" viewBox="0 0 139 34" fill="none" xmlns="http://www.w3.org/2000/svg">
<path d="M89.5247 20.3576H84.8782V16.7735H89.1706C90.0961 16.7735 90.7619 16.5705 91.168 16.1644C91.5835 15.7488 91.7913 15.1302 91.7913 14.3086V13.4303C91.7913 12.5992 91.5883 11.9806 91.1822 11.5745C90.7761 11.1684 90.1103 10.9654 89.1847 10.9654H84.864V7.39552H89.5106C91.8149 7.39552 93.5007 7.9055 94.5679 8.92547C95.6445 9.94543 96.1828 11.4045 96.1828 13.3028V14.4503C96.1828 16.358 95.6445 17.8218 94.5679 18.8418C93.5007 19.8523 91.8196 20.3576 89.5247 20.3576ZM86.2665 25.4999H81.9033V7.39552H86.2382V17.7793L86.2665 19.7909V25.4999Z" fill="#1D1D23"/>
<path d="M110.269 25.4999H106.005L106.132 22.015L106.033 21.8025V17.4535L106.005 16.8868C106.005 16.1124 105.778 15.5411 105.325 15.1727C104.872 14.8044 104.111 14.6203 103.044 14.6203C102.109 14.6203 101.221 14.7383 100.381 14.9744C99.5403 15.2105 98.747 15.4797 98.001 15.7819L98.3693 12.4245C98.8132 12.2167 99.309 12.0231 99.8567 11.8437C100.414 11.6548 101.028 11.5037 101.698 11.3904C102.369 11.277 103.087 11.2204 103.852 11.2204C105.07 11.2204 106.09 11.362 106.911 11.6454C107.733 11.9287 108.389 12.3301 108.881 12.8495C109.372 13.3689 109.726 13.9922 109.943 14.7194C110.16 15.4372 110.269 16.2305 110.269 17.0993V25.4999ZM101.571 25.8257C100.183 25.8257 99.1295 25.4763 98.4118 24.7774C97.694 24.0785 97.3351 23.0822 97.3351 21.7883V21.4058C97.3351 20.0365 97.7554 19.0259 98.5959 18.3743C99.4459 17.7132 100.792 17.2646 102.633 17.0285L106.373 16.5327L106.628 19.1393L103.313 19.6209C102.643 19.7059 102.171 19.8617 101.897 20.0884C101.623 20.3151 101.486 20.6503 101.486 21.0942V21.1934C101.486 21.6183 101.623 21.9583 101.897 22.2133C102.171 22.4589 102.61 22.5816 103.214 22.5816C103.743 22.5816 104.196 22.5014 104.574 22.3408C104.961 22.1803 105.278 21.9725 105.523 21.7175C105.769 21.4531 105.953 21.1603 106.076 20.8392L106.685 22.5958H105.977C105.825 23.2002 105.589 23.748 105.268 24.2391C104.957 24.7302 104.503 25.1174 103.908 25.4007C103.313 25.684 102.534 25.8257 101.571 25.8257Z" fill="#1D1D23"/>
<path d="M117.22 17.6801L116.03 15.0452H117.05C117.277 13.8931 117.716 12.9912 118.367 12.3395C119.029 11.6784 119.959 11.3479 121.158 11.3479C121.366 11.3479 121.555 11.362 121.725 11.3904C121.904 11.4187 122.074 11.4518 122.235 11.4895L122.447 15.8669C122.249 15.8102 122.018 15.7724 121.753 15.7536C121.489 15.7252 121.22 15.7111 120.946 15.7111C120.02 15.7111 119.241 15.8858 118.608 16.2352C117.976 16.5752 117.513 17.0568 117.22 17.6801ZM117.305 25.4999H112.97V11.5745H117.05L116.866 16.0227L117.305 16.0794V25.4999Z" fill="#1D1D23"/>
<path d="M138.129 25.4999H133.072L128.963 19.4934H127.83V16.9435H128.963L132.958 11.5745H137.931L132.632 18.4876V17.666L138.129 25.4999ZM128.51 25.4999H124.203V6.78638H128.51V25.4999Z" fill="#1D1D23"/>
<path d="M44.8304 25.7832C44.2449 25.7832 43.6593 25.736 43.0738 25.6415C42.4883 25.5471 41.9594 25.4101 41.4872 25.2307L41.1614 21.4908C41.5958 21.6419 42.0302 21.76 42.4647 21.845C42.8991 21.93 43.343 21.9725 43.7963 21.9725C44.8351 21.9725 45.534 21.7505 45.8929 21.3067C46.2518 20.8534 46.4312 20.1592 46.4312 19.2242V7.39551H50.8794V19.4934C50.8794 21.5617 50.4166 23.1294 49.4911 24.1966C48.5656 25.2543 47.012 25.7832 44.8304 25.7832Z" fill="#27AE60"/>
<path d="M59.992 25.8965C57.7443 25.8965 56.0443 25.3393 54.8922 24.2249C53.7494 23.101 53.178 21.5239 53.178 19.4934V17.666C53.178 15.6072 53.7541 14.0111 54.9063 12.8778C56.0585 11.7351 57.7537 11.1637 59.992 11.1637C62.2302 11.1637 63.9207 11.7351 65.0635 12.8778C66.2156 14.0111 66.7917 15.6072 66.7917 17.666V19.4934C66.7917 21.5239 66.2204 23.101 65.0776 24.2249C63.9349 25.3393 62.2397 25.8965 59.992 25.8965ZM59.992 22.4825C60.7947 22.4825 61.4039 22.2416 61.8194 21.76C62.2444 21.2689 62.4569 20.5748 62.4569 19.6776V17.4818C62.4569 16.5374 62.2444 15.8196 61.8194 15.3286C61.4039 14.8375 60.7947 14.5919 59.992 14.5919C59.1892 14.5919 58.5754 14.8375 58.1504 15.3286C57.7348 15.8196 57.5271 16.5374 57.5271 17.4818V19.6776C57.5271 20.5748 57.7348 21.2689 58.1504 21.76C58.5754 22.2416 59.1892 22.4825 59.992 22.4825Z" fill="#27AE60"/>
<path d="M74.6942 25.8115C73.4571 25.8115 72.4702 25.6273 71.7335 25.259C71.0063 24.8813 70.4822 24.3193 70.1611 23.5733C69.84 22.8272 69.6794 21.9064 69.6794 20.8109V13.0336H73.9859V20.1167C73.9859 20.7967 74.137 21.2972 74.4393 21.6183C74.7509 21.93 75.327 22.0858 76.1675 22.0858C76.6303 22.0858 77.0883 22.0339 77.5416 21.93C77.995 21.8261 78.4058 21.6939 78.7741 21.5333L78.4058 25.1174C77.9241 25.3251 77.3669 25.4904 76.7342 25.6132C76.1109 25.7454 75.4309 25.8115 74.6942 25.8115ZM78.2641 15.0311H67.8095V11.6312H78.6466L78.2641 15.0311ZM73.8584 11.9428H69.7361L69.7219 8.34464L74.0143 7.93382L73.8584 11.9428Z" fill="#27AE60"/>
<path fill-rule="evenodd" clip-rule="evenodd" d="M14.0154 18.1417C14.0127 16.1491 14.5458 14.1821 15.5741 12.3899C16.1905 11.3046 16.9832 10.2977 17.9291 9.39842V8.74011e-06C16.176 -0.00222652 14.4595 0.424328 12.9858 1.2284L5.83539 5.12072C4.29863 6.00205 3.04553 7.19387 2.18938 8.58839C1.33323 9.98292 0.901055 11.5362 0.931924 13.1077V20.8634C0.892628 22.4435 1.32068 24.0069 2.1771 25.4111C3.03353 26.8153 4.29112 28.0159 5.83539 28.9034L12.9858 32.7572C14.4544 33.5645 16.1668 33.9961 17.9177 34V25.8685L14.8402 21.3885C14.2484 20.3819 13.9648 19.2654 14.0154 18.1417ZM33.6692 8.58913C32.8142 7.19361 31.5608 6.0013 30.0229 5.12072L22.8724 1.2284C21.3988 0.424328 19.6822 -0.00222652 17.9292 8.74011e-06V9.39842C18.5356 8.80874 19.206 8.26846 19.9315 7.78465C23.0431 6.17569 25.5631 7.95807 25.62 11.7637C25.6028 13.2175 25.3129 14.6598 24.761 16.0366L21.3138 24.8135C20.5914 26.567 18.9986 27.4149 18.3103 26.4225L17.9292 25.8685V34C19.6839 33.9979 21.4006 33.5663 22.8724 32.7572L30.0229 28.9034C31.563 28.0181 32.8181 26.8214 33.6743 25.4217C34.5305 24.022 34.9608 22.4636 34.9263 20.8875V13.1077C34.9605 11.5361 34.5283 9.98245 33.6692 8.58913ZM23.1283 13.7777C23.1255 14.7917 22.8578 15.7927 22.3445 16.7088C21.8311 17.6249 21.0848 18.4335 20.1589 19.0766C18.532 19.9244 17.2237 19.0766 17.2237 16.9378C17.2266 15.9266 17.4909 14.9283 17.998 14.0129C18.505 13.0974 19.2426 12.2871 20.1589 11.6388C21.8143 10.8151 23.1283 11.7014 23.1283 13.7777Z" fill="#27AE60"/>
</svg>
