<svg width="60" height="71" viewBox="0 0 60 71" fill="none" xmlns="http://www.w3.org/2000/svg">
<g clip-path="url(#clip0_665_12073)">
<path d="M40.51 29.15C40.5051 31.255 40.0346 33.3329 39.1321 35.2347C38.2296 37.1364 36.9176 38.815 35.29 40.15C32.43 41.91 30.13 40.15 30.13 35.71C30.1352 33.611 30.5997 31.5386 31.4912 29.6383C32.3826 27.7379 33.6792 26.0558 35.29 24.71C38.2 23 40.51 24.84 40.51 29.15Z" fill="#24AE5F"/>
<path d="M57.55 17.83C56.0471 14.9331 53.8436 12.458 51.14 10.63L38.57 2.55C35.9794 0.880839 32.9618 -0.00463725 29.88 2.88466e-06V19.51C30.9462 18.2859 32.1247 17.1643 33.4 16.16C38.87 12.82 43.3 16.52 43.4 24.42C43.3699 27.438 42.8602 30.432 41.89 33.29L35.83 51.51C34.56 55.15 31.76 56.91 30.55 54.85L29.88 53.7V70.58C32.9648 70.5757 35.9826 69.6797 38.57 68L51.14 60C53.8475 58.1623 56.0538 55.6781 57.559 52.7725C59.0642 49.8669 59.8207 46.6317 59.76 43.36V27.21C59.8201 23.9476 59.0602 20.7224 57.55 17.83Z" fill="#24AE5F"/>
<path d="M25.74 25.72C23.9323 29.4405 22.9953 33.5236 23 37.66C22.911 39.9927 23.4096 42.3103 24.45 44.4L29.86 53.7V70.58C26.782 70.5719 23.7717 69.676 21.19 68L8.62 60C5.90527 58.1576 3.69449 55.6655 2.18895 52.7505C0.683403 49.8354 -0.0690834 46.5901 -2.43867e-06 43.31V27.21C-0.0542689 23.9477 0.705476 20.7234 2.21053 17.8285C3.71558 14.9336 5.91847 12.4595 8.62 10.63L21.19 2.55C23.7806 0.880839 26.7982 -0.00463725 29.88 2.88466e-06V19.51C28.2171 21.3768 26.8236 23.467 25.74 25.72Z" fill="#219653"/>
</g>
<defs>
<clipPath id="clip0_665_12073">
<rect width="59.77" height="70.58" fill="white"/>
</clipPath>
</defs>
</svg>
