<svg width="20" height="21" viewBox="0 0 20 21" fill="none" xmlns="http://www.w3.org/2000/svg">
<path d="M11 18.6773C12.1292 18.4465 13.144 17.8327 13.8729 16.9399C14.6017 16.047 14.9999 14.9299 15 13.7773V10.7773C15.0013 10.0892 14.86 9.40818 14.585 8.77734H5.415C5.13996 9.40818 4.99866 10.0892 5 10.7773V13.7773C5.00014 14.9299 5.3983 16.047 6.12714 16.9399C6.85599 17.8327 7.87081 18.4465 9 18.6773V12.7773H11V18.6773ZM3.536 16.4673C3.18115 15.615 2.99897 14.7006 3 13.7773H0V11.7773H3V10.7773C3 10.1343 3.087 9.51234 3.249 8.92134L1.036 7.64334L2.036 5.91134L4.056 7.07734C4.11975 6.97566 4.18611 6.87562 4.255 6.77734H15.745C15.814 6.87534 15.88 6.97634 15.944 7.07734L17.964 5.91134L18.964 7.64334L16.751 8.92134C16.913 9.51134 17 10.1343 17 10.7773V11.7773H20V13.7773H17C17.0015 14.7007 16.8193 15.6151 16.464 16.4673L18.964 17.9113L17.964 19.6433L15.438 18.1853C14.7824 18.9957 13.9537 19.6491 13.0127 20.0976C12.0718 20.5461 11.0424 20.7784 10 20.7773C8.95762 20.7784 7.92822 20.5461 6.98726 20.0976C6.0463 19.6491 5.21763 18.9957 4.562 18.1853L2.036 19.6433L1.036 17.9113L3.536 16.4683V16.4673ZM6 4.77734C6 3.71648 6.42143 2.69906 7.17157 1.94892C7.92172 1.19877 8.93913 0.777344 10 0.777344C11.0609 0.777344 12.0783 1.19877 12.8284 1.94892C13.5786 2.69906 14 3.71648 14 4.77734H6Z" fill="#1D1D23"/>
</svg>
