<svg width="32" height="57" viewBox="0 0 32 57" fill="none" xmlns="http://www.w3.org/2000/svg">
<path d="M7.66362 51.4978C6.20771 49.6505 4.77146 47.7852 3.32328 45.9334C2.83322 45.3072 1.92743 45.1959 1.30125 45.686C0.674671 46.1754 0.563821 47.0819 1.05388 47.708C2.99181 50.1871 4.90959 52.6882 6.87876 55.1418C6.90743 55.1768 7.63751 55.975 7.79457 56.1235C8.71626 56.9968 9.70493 56.2327 9.78533 56.1591C12.4414 53.7184 14.6772 50.4508 17.7417 48.4835C18.4112 48.0538 18.6056 47.162 18.1759 46.4925C17.7466 45.8237 16.8548 45.6293 16.1853 46.059C14.0563 47.4252 12.2935 49.3755 10.5346 51.2786C10.3376 48.4463 10.4476 44.9903 11.336 42.0165C11.9942 39.8155 13.0693 37.8719 14.8891 36.8053C17.3062 35.3873 22.2634 34.4476 25.9497 32.688C28.9485 31.2569 31.1184 29.2629 31.3706 26.5016C31.5183 24.8805 30.6654 23.6438 29.2757 22.7593C27.8147 21.8296 25.6886 21.3271 24.4813 20.9358C21.1836 19.8666 15.726 18.3341 12.3851 15.8722C11.043 14.8833 10.0337 13.7754 9.96229 12.3859C9.88643 10.8976 10.8519 9.24999 13.0497 7.24558C14.3704 6.04113 15.9947 5.50864 17.6747 4.97499C20.239 4.15965 22.8644 3.50701 25.5083 3.00504C26.2893 2.85624 26.8032 2.10174 26.6544 1.32076C26.5063 0.539371 25.7511 0.0259381 24.9701 0.174739C22.2139 0.698365 19.4758 1.37852 16.8015 2.22921C14.7197 2.89073 12.7446 3.62483 11.1083 5.11649C8.01498 7.93727 6.97771 10.4388 7.0856 12.5334C7.19796 14.7268 8.55788 16.6305 10.6759 18.1913C14.2517 20.8262 20.0641 22.5329 23.5928 23.677C24.4822 23.9647 25.9453 24.2937 27.1541 24.8746C27.5282 25.0545 27.8763 25.256 28.1475 25.5048C28.3632 25.7029 28.5294 25.9307 28.5013 26.2396C28.3354 28.0532 26.6782 29.1479 24.7092 30.0877C20.9472 31.8835 15.898 32.8734 13.4309 34.3203C11.0042 35.743 9.45396 38.2545 8.57604 41.1913C7.58592 44.5025 7.44826 48.3526 7.66362 51.4978Z" fill="#EB5757"/>
</svg>
