<svg width="22" height="22" viewBox="0 0 22 22" fill="none" xmlns="http://www.w3.org/2000/svg">
<path d="M5.91708 17.4167L1.83333 20.625V3.66667C1.83333 3.42355 1.92991 3.19039 2.10181 3.01849C2.27372 2.84658 2.50688 2.75 2.74999 2.75H19.25C19.4931 2.75 19.7263 2.84658 19.8982 3.01849C20.0701 3.19039 20.1667 3.42355 20.1667 3.66667V16.5C20.1667 16.7431 20.0701 16.9763 19.8982 17.1482C19.7263 17.3201 19.4931 17.4167 19.25 17.4167H5.91708ZM3.66666 16.8529L5.28274 15.5833H18.3333V4.58333H3.66666V16.8529ZM10.0833 11.9167H11.9167V13.75H10.0833V11.9167ZM10.0833 6.41667H11.9167V11H10.0833V6.41667Z" fill="#27AE60"/>
</svg>
