<svg width="34" height="34" viewBox="0 0 34 34" fill="none" xmlns="http://www.w3.org/2000/svg">
<path d="M23.8182 6.77274V5.06819C23.8182 4.12675 23.0551 3.36365 22.1137 3.36365H11.8864C10.945 3.36365 10.1819 4.12675 10.1819 5.06819V6.77274H23.8182Z" fill="white"/>
<path d="M10.2107 8.47729C10.3443 10.4144 10.9579 12.0975 12.2837 13.177C13.0851 13.8296 13.591 14.7754 13.591 15.809V28.9318C13.591 29.8732 14.3542 30.6364 15.2956 30.6364H18.7047C19.6461 30.6364 20.4092 29.8732 20.4092 28.9318V15.495C20.4092 14.4223 20.9613 13.4596 21.803 12.7945C23.0666 11.796 23.6556 10.3229 23.7879 8.47729H10.2107V8.47729ZM17.0001 18.7046C16.0587 18.7046 15.2956 17.9414 15.2956 17C15.2956 16.0586 16.0587 15.2955 17.0001 15.2955C17.9416 15.2955 18.7047 16.0586 18.7047 17C18.7047 17.9414 17.9416 18.7046 17.0001 18.7046Z" fill="white"/>
</svg>
