<svg width="34" height="34" viewBox="0 0 34 34" fill="none" xmlns="http://www.w3.org/2000/svg">
<path d="M23.818 6.77274V5.06819C23.818 4.12675 23.0549 3.36365 22.1135 3.36365H11.8862C10.9448 3.36365 10.1816 4.12675 10.1816 5.06819V6.77274H23.818Z" fill="#1D1D23"/>
<path d="M10.2104 8.47729C10.3441 10.4144 10.9577 12.0975 12.2834 13.177C13.0849 13.8296 13.5908 14.7754 13.5908 15.809V28.9318C13.5908 29.8732 14.3539 30.6364 15.2953 30.6364H18.7044C19.6459 30.6364 20.409 29.8732 20.409 28.9318V15.495C20.409 14.4223 20.9611 13.4596 21.8027 12.7945C23.0663 11.796 23.6553 10.3229 23.7876 8.47729H10.2104V8.47729ZM16.9999 18.7046C16.0585 18.7046 15.2953 17.9414 15.2953 17C15.2953 16.0586 16.0585 15.2955 16.9999 15.2955C17.9413 15.2955 18.7044 16.0586 18.7044 17C18.7044 17.9414 17.9413 18.7046 16.9999 18.7046Z" fill="#1D1D23"/>
</svg>
