<svg width="20" height="21" viewBox="0 0 20 21" fill="none" xmlns="http://www.w3.org/2000/svg">
<path d="M10 20.0972C4.477 20.0972 0 15.6202 0 10.0972C0 4.57417 4.477 0.097168 10 0.097168C15.523 0.097168 20 4.57417 20 10.0972C20 15.6202 15.523 20.0972 10 20.0972ZM10 18.0972C12.1217 18.0972 14.1566 17.2543 15.6569 15.754C17.1571 14.2537 18 12.2189 18 10.0972C18 7.97544 17.1571 5.9406 15.6569 4.44031C14.1566 2.94002 12.1217 2.09717 10 2.09717C7.87827 2.09717 5.84344 2.94002 4.34315 4.44031C2.84285 5.9406 2 7.97544 2 10.0972C2 12.2189 2.84285 14.2537 4.34315 15.754C5.84344 17.2543 7.87827 18.0972 10 18.0972ZM9 5.09717H11V7.09717H9V5.09717ZM9 9.09717H11V15.0972H9V9.09717Z" fill="#1D1D23"/>
</svg>
