<svg width="20" height="21" viewBox="0 0 20 21" fill="none" xmlns="http://www.w3.org/2000/svg">
<path d="M17 20.4858H3C2.20435 20.4858 1.44129 20.1698 0.87868 19.6072C0.316071 19.0446 0 18.2815 0 17.4858V1.48584C0 1.22062 0.105357 0.966269 0.292893 0.778733C0.48043 0.591197 0.734784 0.48584 1 0.48584H15C15.2652 0.48584 15.5196 0.591197 15.7071 0.778733C15.8946 0.966269 16 1.22062 16 1.48584V13.4858H20V17.4858C20 18.2815 19.6839 19.0446 19.1213 19.6072C18.5587 20.1698 17.7956 20.4858 17 20.4858ZM16 15.4858V17.4858C16 17.7511 16.1054 18.0054 16.2929 18.1929C16.4804 18.3805 16.7348 18.4858 17 18.4858C17.2652 18.4858 17.5196 18.3805 17.7071 18.1929C17.8946 18.0054 18 17.7511 18 17.4858V15.4858H16ZM14 18.4858V2.48584H2V17.4858C2 17.7511 2.10536 18.0054 2.29289 18.1929C2.48043 18.3805 2.73478 18.4858 3 18.4858H14ZM4 5.48584H12V7.48584H4V5.48584ZM4 9.48584H12V11.4858H4V9.48584ZM4 13.4858H9V15.4858H4V13.4858Z" fill="#1D1D23"/>
</svg>
