<svg width="18" height="21" viewBox="0 0 18 21" fill="none" xmlns="http://www.w3.org/2000/svg">
<path d="M17 20.6802H1C0.734784 20.6802 0.48043 20.5748 0.292893 20.3873C0.105357 20.1997 0 19.9454 0 19.6802V1.68018C0 1.41496 0.105357 1.16061 0.292893 0.973069C0.48043 0.785533 0.734784 0.680176 1 0.680176H17C17.2652 0.680176 17.5196 0.785533 17.7071 0.973069C17.8946 1.16061 18 1.41496 18 1.68018V19.6802C18 19.9454 17.8946 20.1997 17.7071 20.3873C17.5196 20.5748 17.2652 20.6802 17 20.6802ZM16 18.6802V2.68018H2V18.6802H16ZM5 5.68018H13V7.68018H5V5.68018ZM5 9.68018H13V11.6802H5V9.68018ZM5 13.6802H10V15.6802H5V13.6802Z" fill="#1D1D23"/>
</svg>
