<svg width="29" height="24" viewBox="0 0 29 24" fill="none" xmlns="http://www.w3.org/2000/svg">
<path d="M27.3641 5.26449C27.2404 4.94711 27.0413 4.66459 26.784 4.44129C26.5268 4.218 26.2191 4.06064 25.8874 3.9828C25.5558 3.90495 25.2102 3.90895 24.8805 3.99445C24.5507 4.07995 24.2468 4.24438 23.9947 4.47357L22.2033 6.09892C22.876 7.35673 23.2265 8.76161 23.2236 10.188C23.2256 11.7091 22.8297 13.2043 22.0751 14.525C21.3206 15.8458 20.2337 16.9462 18.9223 17.717C17.6109 18.4878 16.1208 18.9022 14.5997 18.9189C13.0787 18.9357 11.5798 18.5543 10.2518 17.8126C8.92374 17.0709 7.81283 15.9947 7.02936 14.6909C6.24589 13.387 5.8171 11.901 5.78559 10.3802C5.75407 8.85939 6.12092 7.35682 6.84971 6.02166C7.57849 4.6865 8.64386 3.56521 9.94002 2.76913L7.54352 0.534767C7.15132 0.179299 6.63757 -0.0119342 6.1084 0.00057738C5.57924 0.0130889 5.0751 0.22839 4.70014 0.601995C4.10915 1.1779 3.57052 1.8052 3.09061 2.47649C1.87795 4.26453 1.10251 6.31257 0.826852 8.45539C0.55119 10.5982 0.783019 12.7758 1.50364 14.8126C2.22426 16.8493 3.4135 18.6882 4.97542 20.1809C6.53735 21.6735 8.42824 22.7782 10.4956 23.4058C12.5629 24.0333 14.7488 24.1662 16.8769 23.7937C19.005 23.4212 21.0158 22.5537 22.747 21.2613C24.4783 19.9688 25.8815 18.2876 26.8436 16.3531C27.8056 14.4186 28.2996 12.2852 28.2855 10.1247C28.2766 8.46209 27.9643 6.81504 27.3641 5.26449Z" fill="#2F4858"/>
<path d="M27.3089 5.14196C27.1279 4.78544 26.8519 4.48591 26.5113 4.27653C26.1707 4.06715 25.7788 3.95607 25.379 3.95558C24.8954 3.97117 24.4296 4.14169 24.0503 4.44199L21.6775 6.60517L17.6122 10.283C16.7698 11.0485 15.6707 11.4697 14.5325 11.4631C13.3943 11.4565 12.3001 11.0226 11.4667 10.2474L6.8714 5.96848C7.57236 4.63414 8.63618 3.52508 9.94019 2.76919L13.3412 5.93289C13.6517 6.21689 14.0573 6.3744 14.4781 6.3744C14.8989 6.3744 15.3045 6.21689 15.6151 5.93289L18.5138 3.29911L21.5351 0.554601C21.922 0.201586 22.4301 0.0111938 22.9537 0.022977C23.4773 0.0347602 23.9762 0.247813 24.3469 0.617875C24.9775 1.23112 25.5409 1.90988 26.0276 2.64264C26.5347 3.43223 26.9638 4.26928 27.3089 5.14196Z" fill="url(#paint0_linear_953_50927)"/>
<defs>
<linearGradient id="paint0_linear_953_50927" x1="7.49215" y1="8.81656" x2="25.7694" y2="2.70606" gradientUnits="userSpaceOnUse">
<stop stop-color="#FFBA08"/>
<stop offset="0.18" stop-color="#FEB309"/>
<stop offset="0.46" stop-color="#FB9E0D"/>
<stop offset="0.79" stop-color="#F67D14"/>
<stop offset="1" stop-color="#F26419"/>
</linearGradient>
</defs>
</svg>
