<svg width="22" height="22" viewBox="0 0 22 22" fill="none" xmlns="http://www.w3.org/2000/svg">
<path d="M4.58332 20.1666C4.34021 20.1666 4.10705 20.07 3.93514 19.8981C3.76323 19.7262 3.66666 19.493 3.66666 19.2499V2.74992C3.66666 2.5068 3.76323 2.27365 3.93514 2.10174C4.10705 1.92983 4.34021 1.83325 4.58332 1.83325H17.4167C17.6598 1.83325 17.8929 1.92983 18.0648 2.10174C18.2367 2.27365 18.3333 2.5068 18.3333 2.74992V5.49992H16.5V3.66659H5.49999V18.3333H16.5V16.4999H18.3333V19.2499C18.3333 19.493 18.2367 19.7262 18.0648 19.8981C17.8929 20.07 17.6598 20.1666 17.4167 20.1666H4.58332ZM16.5 14.6666V11.9166H10.0833V10.0833H16.5V7.33325L21.0833 10.9999L16.5 14.6666Z" fill="#828282"/>
</svg>
