<svg width="16" height="15" viewBox="0 0 16 15" fill="none" xmlns="http://www.w3.org/2000/svg">
<path d="M0.5 2.25L5.75 0L10.25 2.25L14.9772 0.22425C15.0343 0.199788 15.0966 0.189877 15.1584 0.195407C15.2202 0.200937 15.2797 0.221735 15.3316 0.255934C15.3834 0.290133 15.4259 0.336663 15.4553 0.391348C15.4847 0.446034 15.5001 0.507163 15.5 0.56925V12.75L10.25 15L5.75 12.75L1.02275 14.7758C0.965685 14.8002 0.90344 14.8101 0.841599 14.8046C0.779759 14.7991 0.720259 14.7783 0.66844 14.7441C0.616621 14.7099 0.574104 14.6633 0.544705 14.6087C0.515306 14.554 0.499945 14.4928 0.5 14.4307V2.25ZM10.25 13.323V3.882L10.2013 3.903L5.75 1.677V11.118L5.79875 11.097L10.25 13.323Z" fill="#27AE60"/>
</svg>
