<svg width="20" height="20" viewBox="0 0 20 20" fill="none" xmlns="http://www.w3.org/2000/svg">
<path d="M15.2704 5.07991L12.3154 15.4216L9.78211 10.3549L5.08461 8.47575L15.2704 5.07991ZM16.9921 2.74991L1.32045 7.97325C1.23934 8.00013 1.16845 8.05131 1.1174 8.11983C1.06635 8.18836 1.03761 8.27092 1.03506 8.35633C1.03251 8.44175 1.05629 8.52588 1.10316 8.59732C1.15004 8.66877 1.21775 8.72408 1.29711 8.75575L8.57461 11.6666L12.2621 19.0416C12.2996 19.1167 12.359 19.1787 12.4323 19.2195C12.5057 19.2603 12.5897 19.278 12.6733 19.2702C12.7569 19.2625 12.8362 19.2297 12.9008 19.1761C12.9654 19.1225 13.0124 19.0506 13.0354 18.9699L17.5238 3.25825C17.5444 3.18544 17.5448 3.10839 17.525 3.03537C17.5051 2.96234 17.4657 2.89611 17.4111 2.84377C17.3564 2.79143 17.2885 2.75496 17.2147 2.73828C17.1409 2.7216 17.064 2.72616 16.9921 2.74991Z" fill="#E0E0E0"/>
</svg>
