<svg width="18" height="18" viewBox="0 0 18 18" fill="none" xmlns="http://www.w3.org/2000/svg">
<path d="M8.25 10.5H9.375C10.0712 10.5 10.7389 10.2234 11.2312 9.73116C11.7234 9.23887 12 8.57119 12 7.875C12 7.17881 11.7234 6.51113 11.2312 6.01884C10.7389 5.52656 10.0712 5.25 9.375 5.25H6.75V12.75H8.25V10.5ZM3 2.25H15C15.1989 2.25 15.3897 2.32902 15.5303 2.46967C15.671 2.61032 15.75 2.80109 15.75 3V15C15.75 15.1989 15.671 15.3897 15.5303 15.5303C15.3897 15.671 15.1989 15.75 15 15.75H3C2.80109 15.75 2.61032 15.671 2.46967 15.5303C2.32902 15.3897 2.25 15.1989 2.25 15V3C2.25 2.80109 2.32902 2.61032 2.46967 2.46967C2.61032 2.32902 2.80109 2.25 3 2.25ZM8.25 6.75H9.375C9.67337 6.75 9.95952 6.86853 10.1705 7.0795C10.3815 7.29048 10.5 7.57663 10.5 7.875C10.5 8.17337 10.3815 8.45952 10.1705 8.6705C9.95952 8.88147 9.67337 9 9.375 9H8.25V6.75Z" fill="#BDBDBD"/>
</svg>
