<svg width="153" height="182" viewBox="0 0 153 182" fill="none" xmlns="http://www.w3.org/2000/svg">
<path fill-rule="evenodd" clip-rule="evenodd" d="M61.4215 68.1019C61.4114 60.622 63.4123 53.2383 67.2725 46.5104C69.5864 42.4363 72.5621 38.6564 76.113 35.2807V3.28094e-05C69.5321 -0.0083581 63.0885 1.59288 57.5564 4.61129L30.7146 19.2226C24.9458 22.5311 20.2418 27.005 17.0279 32.2399C13.814 37.4748 12.1917 43.3055 12.3075 49.2048V78.319C12.16 84.2506 13.7669 90.1192 16.9818 95.3906C20.1967 100.662 24.9176 105.169 30.7146 108.5L57.5564 122.967C63.0693 125.998 69.4975 127.618 76.0703 127.632V97.1076L64.5178 80.2901C62.2961 76.5113 61.2314 72.3202 61.4215 68.1019ZM135.2 32.2427C131.991 27.0041 127.285 22.5283 121.512 19.2227L94.6703 4.61134C89.1383 1.59293 82.6946 -0.00830798 76.1138 8.29275e-05V35.2807C78.3905 33.0671 80.907 31.0389 83.6304 29.2228C95.3109 23.1829 104.771 29.8738 104.984 44.1596C104.92 49.6172 103.831 55.0314 101.76 60.1996L88.8194 93.1474C86.1074 99.7298 80.1283 102.912 77.5445 99.1873L76.1138 97.1077V127.632C82.7011 127.625 89.1452 126.004 94.6703 122.967L121.512 108.5C127.294 105.177 132.005 100.685 135.219 95.4305C138.433 90.1762 140.049 84.3259 139.919 78.4095V49.2049C140.048 43.3054 138.425 37.4731 135.2 32.2427ZM95.6308 51.7199C95.6203 55.5265 94.6155 59.284 92.6884 62.723C90.7613 66.1621 87.9595 69.1975 84.4841 71.6116C78.3769 74.7943 73.4655 71.6116 73.4655 63.5826C73.4764 59.7869 74.4685 56.0392 76.3721 52.6028C78.2756 49.1664 81.0444 46.1246 84.4841 43.6909C90.6981 40.5986 95.6308 43.926 95.6308 51.7199Z" fill="#27AE60"/>
<path d="M75.9233 172.937H68.629V167.311H75.3673C76.8203 167.311 77.8655 166.992 78.503 166.354C79.1553 165.702 79.4815 164.731 79.4815 163.441V162.062C79.4815 160.758 79.1628 159.787 78.5253 159.149C77.8877 158.512 76.8425 158.193 75.3896 158.193H68.6067V152.589H75.9011C79.5186 152.589 82.165 153.389 83.8403 154.99C85.5305 156.592 86.3756 158.882 86.3756 161.862V163.664C86.3756 166.658 85.5305 168.956 83.8403 170.558C82.165 172.144 79.526 172.937 75.9233 172.937ZM70.8084 181.01H63.9588V152.589H70.7639V168.89L70.8084 172.048V181.01Z" fill="#1D1D23"/>
<path d="M108.489 181.01H101.795L101.995 175.539L101.839 175.206V168.378L101.795 167.489C101.795 166.273 101.439 165.376 100.727 164.798C100.016 164.22 98.8221 163.93 97.1468 163.93C95.679 163.93 94.2854 164.116 92.9659 164.486C91.6464 164.857 90.401 165.28 89.2298 165.754L89.808 160.483C90.5048 160.157 91.2831 159.853 92.143 159.572C93.0178 159.275 93.9815 159.038 95.0341 158.86C96.0867 158.682 97.2135 158.593 98.4144 158.593C100.327 158.593 101.928 158.816 103.218 159.26C104.508 159.705 105.538 160.335 106.309 161.151C107.08 161.966 107.636 162.945 107.977 164.086C108.318 165.213 108.489 166.458 108.489 167.822V181.01ZM94.8339 181.521C92.6545 181.521 91.0015 180.973 89.8747 179.876C88.7479 178.779 88.1845 177.214 88.1845 175.183V174.583C88.1845 172.433 88.8443 170.847 90.1638 169.824C91.4981 168.786 93.6108 168.082 96.5019 167.711L102.373 166.933L102.773 171.025L97.5693 171.781C96.5167 171.914 95.7754 172.159 95.3454 172.515C94.9155 172.87 94.7005 173.397 94.7005 174.094V174.249C94.7005 174.916 94.9155 175.45 95.3454 175.85C95.7754 176.236 96.4648 176.429 97.4136 176.429C98.2439 176.429 98.9555 176.303 99.5486 176.051C100.156 175.799 100.653 175.472 101.039 175.072C101.424 174.657 101.713 174.197 101.906 173.693L102.862 176.451H101.75C101.513 177.4 101.142 178.26 100.638 179.031C100.149 179.802 99.4374 180.409 98.5033 180.854C97.5693 181.299 96.3462 181.521 94.8339 181.521Z" fill="#1D1D23"/>
<path d="M119.401 168.734L117.533 164.598H119.134C119.49 162.789 120.179 161.373 121.202 160.35C122.24 159.312 123.7 158.793 125.583 158.793C125.909 158.793 126.206 158.816 126.473 158.86C126.755 158.904 127.021 158.956 127.273 159.016L127.607 165.887C127.296 165.799 126.932 165.739 126.517 165.71C126.102 165.665 125.68 165.643 125.25 165.643C123.797 165.643 122.574 165.917 121.58 166.466C120.587 166.999 119.86 167.756 119.401 168.734ZM119.534 181.01H112.729V159.149H119.134L118.845 166.132L119.534 166.221V181.01Z" fill="#1D1D23"/>
<path d="M152.225 181.01H144.285L137.836 171.581H136.057V167.578H137.836L144.107 159.149H151.913L143.596 170.002V168.712L152.225 181.01ZM137.125 181.01H130.364V151.632H137.125V181.01Z" fill="#1D1D23"/>
<path d="M5.75985 181.454C4.84065 181.454 3.92144 181.38 3.00224 181.232C2.08304 181.084 1.25279 180.869 0.511492 180.587L0 174.716C0.68199 174.953 1.36398 175.139 2.04597 175.272C2.72796 175.406 3.42478 175.472 4.13642 175.472C5.76726 175.472 6.86438 175.124 7.42776 174.427C7.99115 173.715 8.27284 172.626 8.27284 171.158V152.589H15.2558V171.58C15.2558 174.827 14.5294 177.288 13.0764 178.964C11.6235 180.624 9.18463 181.454 5.75985 181.454Z" fill="#27AE60"/>
<path d="M29.5613 181.632C26.0327 181.632 23.3641 180.758 21.5553 179.008C19.7614 177.244 18.8644 174.768 18.8644 171.58V168.712C18.8644 165.48 19.7688 162.974 21.5776 161.195C23.3863 159.401 26.0476 158.504 29.5613 158.504C33.075 158.504 35.7288 159.401 37.5228 161.195C39.3315 162.974 40.2359 165.48 40.2359 168.712V171.58C40.2359 174.768 39.3389 177.244 37.545 179.008C35.7511 180.758 33.0898 181.632 29.5613 181.632ZM29.5613 176.273C30.8215 176.273 31.7778 175.895 32.4301 175.139C33.0973 174.368 33.4308 173.278 33.4308 171.87V168.423C33.4308 166.94 33.0973 165.813 32.4301 165.042C31.7778 164.271 30.8215 163.886 29.5613 163.886C28.3011 163.886 27.3374 164.271 26.6702 165.042C26.0179 165.813 25.6917 166.94 25.6917 168.423V171.87C25.6917 173.278 26.0179 174.368 26.6702 175.139C27.3374 175.895 28.3011 176.273 29.5613 176.273Z" fill="#27AE60"/>
<path d="M52.6417 181.499C50.6995 181.499 49.1502 181.21 47.9938 180.632C46.8522 180.039 46.0294 179.156 45.5253 177.985C45.0212 176.814 44.7692 175.368 44.7692 173.649V161.44H51.5298V172.559C51.5298 173.626 51.767 174.412 52.2414 174.916C52.7306 175.406 53.635 175.65 54.9545 175.65C55.681 175.65 56.4001 175.569 57.1117 175.406C57.8233 175.242 58.4683 175.035 59.0465 174.783L58.4683 180.409C57.7121 180.735 56.8374 180.995 55.8441 181.188C54.8656 181.395 53.7981 181.499 52.6417 181.499ZM58.2459 164.575H41.8336V159.238H58.8463L58.2459 164.575ZM51.3296 159.727H44.8581L44.8359 154.079L51.5742 153.434L51.3296 159.727Z" fill="#27AE60"/>
</svg>
