<svg width="22" height="22" viewBox="0 0 22 22" fill="none" xmlns="http://www.w3.org/2000/svg">
<path d="M17 6.2915H22V8.2915H17V6.2915ZM15 11.2915H22V13.2915H15V11.2915ZM18 16.2915H22V18.2915H18V16.2915ZM0 21.2915C0 19.1698 0.842855 17.1349 2.34315 15.6346C3.84344 14.1344 5.87827 13.2915 8 13.2915C10.1217 13.2915 12.1566 14.1344 13.6569 15.6346C15.1571 17.1349 16 19.1698 16 21.2915H14C14 19.7002 13.3679 18.1741 12.2426 17.0489C11.1174 15.9236 9.5913 15.2915 8 15.2915C6.4087 15.2915 4.88258 15.9236 3.75736 17.0489C2.63214 18.1741 2 19.7002 2 21.2915H0ZM8 12.2915C4.685 12.2915 2 9.6065 2 6.2915C2 2.9765 4.685 0.291504 8 0.291504C11.315 0.291504 14 2.9765 14 6.2915C14 9.6065 11.315 12.2915 8 12.2915ZM8 10.2915C10.21 10.2915 12 8.5015 12 6.2915C12 4.0815 10.21 2.2915 8 2.2915C5.79 2.2915 4 4.0815 4 6.2915C4 8.5015 5.79 10.2915 8 10.2915Z" fill="#1D1D23"/>
</svg>
