<svg width="35" height="34" viewBox="0 0 35 34" fill="none" xmlns="http://www.w3.org/2000/svg">
<path d="M18.7269 4.25026L32.2221 27.6253C32.3464 27.8406 32.4118 28.0849 32.4118 28.3336C32.4119 28.5823 32.3464 28.8266 32.2221 29.0419C32.0977 29.2573 31.9189 29.4361 31.7035 29.5605C31.4882 29.6848 31.2439 29.7503 30.9952 29.7503H4.00489C3.75621 29.7503 3.51192 29.6848 3.29657 29.5605C3.08121 29.4361 2.90238 29.2573 2.77805 29.0419C2.65371 28.8266 2.58826 28.5823 2.58826 28.3336C2.58826 28.0849 2.65372 27.8406 2.77805 27.6253L16.2732 4.25026C16.3976 4.03492 16.5764 3.8561 16.7918 3.73177C17.0071 3.60744 17.2514 3.54199 17.5001 3.54199C17.7487 3.54199 17.993 3.60744 18.2084 3.73177C18.4237 3.8561 18.6025 4.03492 18.7269 4.25026ZM16.0834 22.6669V25.5003H18.9167V22.6669H16.0834ZM16.0834 12.7503V19.8336H18.9167V12.7503H16.0834Z" fill="#F2994A"/>
</svg>
